<?xml version="1.0" encoding="UTF-8"?><svg id="Layer_1" xmlns="http://www.w3.org/2000/svg" viewBox="0 0 269.02 96.82"><defs><style>.cls-1{fill:#878485;}.cls-1,.cls-2,.cls-3{stroke-width:0px;}.cls-2{fill:#bf2f38;}.cls-3{fill:#fff;}</style></defs><path class="cls-2" d="m134.98,41.93c11.58,0,20.96-9.39,20.96-20.97S146.56,0,134.98,0s-20.97,9.39-20.97,20.97,9.39,20.97,20.97,20.97Z"/><polygon class="cls-3" points="130.4 29.49 129.08 23.02 125.87 23.02 128.99 38.05 134.97 28.17 140.93 38.05 144.06 23.02 140.85 23.02 139.53 29.49 134.96 21.97 130.4 29.49"/><polygon class="cls-3" points="139.54 12.48 140.86 18.95 144.07 18.95 140.95 3.92 134.97 13.8 129.01 3.92 125.88 18.95 129.09 18.95 130.41 12.48 134.97 20 139.54 12.48"/><path class="cls-1" d="m0,57.98h10.51l10.35,27.21,10.44-27.21h10.4v38.78h-6.57v-32.21h-.11l-11.76,32.21h-4.81l-11.76-32.21h-.11v32.21H0v-38.79Z"/><path class="cls-1" d="m55.84,57.98h6.9v38.79h-6.9v-38.79Z"/><path class="cls-1" d="m102.79,67.54c-2.72-2.88-5.22-3.66-7.78-3.66-7.62,0-12.69,5.86-12.69,13.24,0,7.9,5.07,13.76,12.69,13.76,2.98,0,5.85-1.36,8.31-4.5l5.43,3.87c-3.34,4.6-8.36,6.58-13.79,6.58-11.38,0-19.53-7.73-19.53-19.29s8.15-19.61,19.53-19.61c5.02,0,9.3,1.62,12.95,5.85l-5.12,3.77Z"/><path class="cls-1" d="m119.67,57.98h6.9v15.48h18.07v-15.48h6.9v38.79h-6.9v-17.06h-18.07v17.06h-6.9v-38.79Z"/><path class="cls-1" d="m167.09,57.98h25.67v6.24h-18.78v9.57h17.79v6.24h-17.79v10.49h19.76v6.24h-26.66v-38.79Z"/><path class="cls-1" d="m207.38,57.98h6.9v32.54h16.48v6.24h-23.38v-38.79Z"/><path class="cls-1" d="m242.36,57.98h25.68v6.24h-18.78v9.57h17.79v6.24h-17.79v10.49h19.77v6.24h-26.66v-38.79Z"/></svg>